<svg xmlns="http://www.w3.org/2000/svg" xmlns:xlink="http://www.w3.org/1999/xlink"><symbol id="add-report" viewBox="0 0 52 51"><path d="m1.781 23.222 22.657 13.492 25.78-13.492M1 30.365l23.438 14.286m17.187-12.699V51m-9.375-9.499H51M1.781 14.492 24.438 1l25.78 13.492-25.78 14.286L1.78 14.492Z" stroke="currentColor"/></symbol><symbol id="login" viewBox="0 0 52 52"><path d="m41.625 26 .367.34.327-.353-.34-.34-.354.353ZM30.372 14.04a.5.5 0 1 0-.707.706l.707-.707Zm-.72 24.12a.5.5 0 1 0 .732.68l-.732-.68ZM1.893 25.5a.5.5 0 0 0 0 1v-1Zm14.732-24h18.75v-1h-18.75v1ZM50.5 16.625v18.75h1v-18.75h-1ZM35.375 50.5h-18.75v1h18.75v-1ZM1.5 19.75v-3.125h-1v3.125h1Zm0 15.625v-2.679h-1v2.679h1ZM16.625 50.5C8.272 50.5 1.5 43.728 1.5 35.375h-1C.5 44.281 7.72 51.5 16.625 51.5v-1ZM50.5 35.375c0 8.353-6.772 15.125-15.125 15.125v1c8.906 0 16.125-7.22 16.125-16.125h-1ZM35.375 1.5C43.728 1.5 50.5 8.272 50.5 16.625h1C51.5 7.719 44.28.5 35.375.5v1Zm-18.75-1C7.719.5.5 7.72.5 16.625h1C1.5 8.272 8.272 1.5 16.625 1.5v-1Zm25.354 25.146L30.372 14.04l-.707.707 11.607 11.608.707-.708Zm-.72.014-11.607 12.5.732.68 11.608-12.5-.733-.68Zm-39.366.84h39.732v-1H1.893v1Z" fill="currentColor"/></symbol><symbol id="save" viewBox="0 0 51 51"><path fill-rule="evenodd" clip-rule="evenodd" d="M5.2.732h-.223l-.149.166L.861 5.306l-.129.143V43.612h18.575v-1H1.732V5.832l3.69-4.1h3.686V16.28h21.72V1.732h1.062l9.84 9.412v8.603h1V10.717l-.154-.148L32.436.871l-.145-.139H5.2Zm4.908 14.548V1.732h19.72V15.28h-19.72Zm39.5 21.22c0 7.239-5.87 13.107-13.108 13.107S23.393 43.739 23.393 36.5c0-7.239 5.869-13.107 13.107-13.107 7.239 0 13.107 5.868 13.107 13.107Zm1 0c0 7.79-6.317 14.107-14.108 14.107-7.79 0-14.107-6.316-14.107-14.107 0-7.791 6.316-14.107 14.107-14.107 7.791 0 14.107 6.316 14.107 14.107Zm-10.765-3.536 3.182 3.182a.5.5 0 0 1 0 .707l-3.182 3.182a.5.5 0 1 1-.707-.707L41.464 37h-12.9v-1h12.9l-2.328-2.328a.5.5 0 0 1 .707-.708Zm-19.757-9.007a5.67 5.67 0 0 1 4.605.793l.56-.828a6.672 6.672 0 1 0-5.968 11.813l.334-.943a5.672 5.672 0 0 1 .47-10.835Z" fill="currentColor"/></symbol><symbol id="select-manager" viewBox="0 0 52 52"><path d="M1.073 17.667s-.433-3.323.81-4.762c1.647-1.909 6.48-.794 6.48-.794M49.679 51s2.602-6.01 0-7.143c-1.157-.503-3.24 0-3.24 0s-.82-1.195-1.621-1.587c-1.132-.555-3.24 0-3.24 0s-1.33-1.293-2.43-1.588c-.916-.244-2.431 0-2.431 0s-.81-.793-2.43-1.587c-1.62-.793-2.47-.483-4.051-.793V24.81s-.978-2.56-2.43-3.175c-1.162-.492-2.08-.492-3.24 0-1.453.615-2.431 3.174-2.431 3.174v21.43l-6.48-5.556s-1.43-.794-2.431-.794c0 0-2.142-.615-3.24 0-.991.554-1.329 1.3-1.62 2.38-.699 2.578 2.43 2.382 4.05 5.556 1.62 3.175 1.62 2.381 1.62 2.381M9.484 4.968c0 1.906-1.58 3.469-3.55 3.469-1.971 0-3.55-1.563-3.55-3.469S3.962 1.5 5.933 1.5c1.97 0 3.55 1.562 3.55 3.468ZM49.99 4.968c0 1.906-1.58 3.469-3.551 3.469-1.97 0-3.55-1.563-3.55-3.469s1.58-3.468 3.55-3.468c1.97 0 3.55 1.562 3.55 3.468Z" stroke="currentColor"/><path d="M15.655 21.103a12.467 12.467 0 0 1-2.43-7.405C13.224 6.685 19.027 1 26.185 1c7.159 0 12.962 5.685 12.962 12.698 0 2.895-.966 5.698-2.613 7.937" stroke="currentColor"/><path d="M30.547 8.936c0 2.345-1.943 4.262-4.361 4.262-2.418 0-4.36-1.917-4.36-4.262 0-2.344 1.942-4.261 4.36-4.261s4.36 1.917 4.36 4.261ZM18.085 24.016s.883-1.992 1.62-3.175c0 0 .81-1.587 2.431-3.174 1.62-1.588 5.864-2.192 8.101 0 1 .98 1.62 3.174 1.62 3.174M44.386 11.784s3.34-.711 4.913.376c2.084 1.44 1.372 6.256 1.372 6.256" stroke="currentColor"/></symbol><symbol id="select-reports" viewBox="0 0 33 33"><path fill-rule="evenodd" clip-rule="evenodd" d="M19.007 1h-5.014c-2.079 0-2.906.01-3.555.199a5 5 0 0 0-3.406 3.406c-.189.649-.199 1.476-.199 3.555V24.6h19.334V8.16c0-2.079-.01-2.906-.199-3.555a5 5 0 0 0-3.407-3.406C21.913 1.01 21.086 1 19.008 1ZM6.07 4.326c-.238.82-.238 1.825-.238 3.834v7.374A6.5 6.5 0 0 0 0 22v4a6.5 6.5 0 0 0 6.5 6.5h20A6.5 6.5 0 0 0 33 26v-4a6.5 6.5 0 0 0-5.833-6.466V8.16c0-2.01 0-3.014-.239-3.834A6 6 0 0 0 22.84.238C22.02 0 21.016 0 19.008 0h-5.014c-2.009 0-3.014 0-3.834.238a6 6 0 0 0-4.088 4.088ZM27.167 16.54v9.06H5.833v-9.06A5.501 5.501 0 0 0 1 22v4a5.5 5.5 0 0 0 5.5 5.5h20A5.5 5.5 0 0 0 32 26v-4a5.501 5.501 0 0 0-4.833-5.46Zm-4.968-7.8-6.333 6.8-.335.36-.366-.328-4-3.6.67-.744 3.634 3.271 5.998-6.44.732.682Z" fill="currentColor"/></symbol><symbol id="submit" viewBox="0 0 52 52"><path d="M43.727 46.982V51H1V1h26.818m0 0v15.625h15.91M27.817 1l15.91 15.625m0 0v4.464M29.181 34.93H51m0 0-7.273-8.483M51 34.93l-7.273 8.035" stroke="currentColor"/></symbol></svg>